<?xml version="1.0" encoding="utf-8"?>
<!-- Generator: Adobe Illustrator 21.0.0, SVG Export Plug-In . SVG Version: 6.00 Build 0)  -->
<svg version="1.1" id="Camada_1" xmlns="http://www.w3.org/2000/svg" xmlns:xlink="http://www.w3.org/1999/xlink" x="0px" y="0px"
	 viewBox="0 0 180 40" style="enable-background:new 0 0 180 40;" xml:space="preserve">
<style type="text/css">
	.st0{fill:#FFFFFF;}
	.st1{fill:#33CC95;}
	.st2{clip-path:url(#SVGID_2_);}
	.st3{fill:none;stroke:#FFFFFF;stroke-width:2;stroke-linecap:round;stroke-linejoin:round;}
</style>
<path class="st0" d="M112.6,14.5c1.6,0,2.9,0.5,3.9,1.5c1,1,1.5,2.4,1.5,4.2V28h-3.4v-7.3c0-1-0.3-1.8-0.8-2.4
	c-0.5-0.6-1.2-0.8-2.2-0.8c-0.9,0-1.6,0.3-2.2,0.8c-0.5,0.5-0.8,1.3-0.8,2.4V28h-3.4v-7.3c0-1-0.3-1.8-0.8-2.4
	c-0.5-0.6-1.2-0.8-2.2-0.8c-0.9,0-1.7,0.3-2.2,0.8c-0.5,0.5-0.8,1.3-0.8,2.4V28H96V14.7h3.4v1.6c0.4-0.6,1-1,1.7-1.3
	c0.7-0.3,1.4-0.5,2.3-0.5c1,0,2,0.2,2.8,0.7c0.8,0.4,1.4,1.1,1.9,1.9c0.4-0.8,1.1-1.4,1.9-1.8C110.7,14.7,111.6,14.5,112.6,14.5z"/>
<path class="st0" d="M66.9,14.5c1.6,0,2.9,0.5,3.9,1.5c1,1,1.5,2.4,1.5,4.2V28H69v-7.3c0-1-0.3-1.8-0.8-2.4
	c-0.5-0.6-1.2-0.8-2.2-0.8c-0.9,0-1.6,0.3-2.2,0.8c-0.5,0.5-0.8,1.3-0.8,2.4V28h-3.4v-7.3c0-1-0.3-1.8-0.8-2.4
	c-0.5-0.6-1.2-0.8-2.2-0.8c-0.9,0-1.7,0.3-2.2,0.8c-0.5,0.5-0.8,1.3-0.8,2.4V28h-3.4V14.7h3.4v1.6c0.4-0.6,1-1,1.7-1.3
	c0.7-0.3,1.4-0.5,2.3-0.5c1,0,2,0.2,2.8,0.7c0.8,0.4,1.4,1.1,1.9,1.9c0.4-0.8,1.1-1.4,1.9-1.8C65.1,14.7,66,14.5,66.9,14.5z"/>
<path class="st0" d="M127.1,28.2c-1.3,0-2.4-0.3-3.5-0.8c-1-0.6-1.8-1.4-2.4-2.4c-0.6-1-0.9-2.2-0.9-3.6c0-1.4,0.3-2.6,0.9-3.6
	c0.6-1,1.4-1.8,2.5-2.4c1-0.6,2.2-0.9,3.5-0.9s2.4,0.3,3.5,0.9c1,0.6,1.9,1.4,2.4,2.4c0.6,1,0.9,2.2,0.9,3.6c0,1.4-0.3,2.6-0.9,3.6
	c-0.6,1-1.4,1.8-2.5,2.4C129.6,27.9,128.4,28.2,127.1,28.2z M127.1,25.3c0.6,0,1.2-0.1,1.7-0.4c0.5-0.3,1-0.8,1.3-1.3
	c0.3-0.6,0.5-1.3,0.5-2.2c0-1.3-0.3-2.2-1-2.9c-0.7-0.7-1.5-1-2.4-1c-1,0-1.8,0.3-2.4,1c-0.6,0.7-1,1.6-1,2.9s0.3,2.2,0.9,2.9
	C125.3,25,126.1,25.3,127.1,25.3z"/>
<path class="st0" d="M143.9,14.5c1.6,0,2.9,0.5,3.8,1.5c1,1,1.5,2.4,1.5,4.2V28h-3.4v-7.3c0-1.1-0.3-1.9-0.8-2.4
	c-0.5-0.6-1.2-0.9-2.2-0.9c-0.9,0-1.7,0.3-2.2,0.9c-0.5,0.6-0.8,1.4-0.8,2.4V28h-3.4V14.7h3.4v1.7c0.4-0.6,1-1,1.7-1.3
	C142.3,14.7,143,14.5,143.9,14.5z"/>
<path class="st0" d="M164.7,21.1c0,0.5,0,0.9-0.1,1.3h-9.7c0.1,1,0.4,1.7,1,2.3c0.6,0.5,1.3,0.8,2.2,0.8c1.2,0,2.1-0.5,2.7-1.6h3.6
	c-0.4,1.3-1.1,2.3-2.2,3.2c-1.1,0.8-2.4,1.2-4,1.2c-1.3,0-2.4-0.3-3.5-0.8c-1-0.6-1.8-1.4-2.4-2.4c-0.6-1-0.8-2.2-0.8-3.6
	c0-1.4,0.3-2.6,0.8-3.6c0.6-1,1.3-1.8,2.4-2.4c1-0.6,2.2-0.8,3.5-0.8c1.3,0,2.4,0.3,3.4,0.8c1,0.5,1.8,1.3,2.3,2.3
	C164.4,18.6,164.7,19.8,164.7,21.1z M161.2,20.1c0-0.9-0.3-1.6-0.9-2.1c-0.6-0.5-1.4-0.8-2.2-0.8c-0.8,0-1.5,0.3-2.1,0.8
	c-0.6,0.5-0.9,1.2-1,2.1H161.2z"/>
<path class="st0" d="M179.9,14.7l-8.2,19.6h-3.6l2.9-6.6l-5.3-13h3.8l3.4,9.3l3.5-9.3H179.9z"/>
<path class="st0" d="M87.9,14.7l-8.2,19.6h-3.6l2.9-6.6l-5.3-13h3.8l3.4,9.3l3.5-9.3H87.9z"/>
<path class="st1" d="M34.2,5.9C30.4,2.1,25.4,0,20,0S9.6,2.1,5.9,5.9S0,14.7,0,20s2.1,10.4,5.9,14.1S14.7,40,20,40
	s10.4-2.1,14.1-5.9S40,25.4,40,20S37.9,9.7,34.2,5.9z"/>
<g>
	<defs>
		<rect id="SVGID_1_" x="6.9" y="6.9" width="27.4" height="27.4"/>
	</defs>
	<clipPath id="SVGID_2_">
		<use xlink:href="#SVGID_1_"  style="overflow:visible;"/>
	</clipPath>
	<g class="st2">
		<path class="st3" d="M20.6,8v25.1"/>
		<path class="st3" d="M26.3,12.6h-8.6c-1.1,0-2.1,0.4-2.8,1.2c-0.8,0.8-1.2,1.8-1.2,2.8c0,1.1,0.4,2.1,1.2,2.8
			c0.8,0.8,1.8,1.2,2.8,1.2h5.7c1.1,0,2.1,0.4,2.8,1.2c0.8,0.8,1.2,1.8,1.2,2.8c0,1.1-0.4,2.1-1.2,2.8c-0.8,0.8-1.8,1.2-2.8,1.2
			h-9.7"/>
	</g>
</g>
</svg>
